<?xml version="1.0" encoding="utf-8"?>
<!-- Generator: Adobe Illustrator 21.0.0, SVG Export Plug-In . SVG Version: 6.00 Build 0)  -->
<svg version="1.1" id="Camada_1" xmlns="http://www.w3.org/2000/svg" xmlns:xlink="http://www.w3.org/1999/xlink" x="0px" y="0px"
	 viewBox="0 0 64.1 39.9" style="enable-background:new 0 0 64.1 39.9;" xml:space="preserve">
<style type="text/css">
	.st0{fill:#D7E9FF;}
	.st1{fill:#8FBEFF;stroke:#8FBEFF;stroke-width:0.5;stroke-linejoin:round;}
	.st2{fill:#D7E9FF;stroke:#D7E9FF;stroke-width:0.5;stroke-linejoin:round;}
	.st3{fill:#4894FF;stroke:#4894FF;stroke-width:0.5;stroke-linejoin:round;}
	.st4{fill:#F8FCFF;stroke:#0069FF;stroke-width:0.5;stroke-linecap:round;stroke-miterlimit:10;}
</style>
<g>
	<path class="st0" d="M60.7,27.1H12.6c-1.9,0-3.4-1.5-3.4-3.4v0c0-1.9,1.5-3.4,3.4-3.4h48.1c1.9,0,3.4,1.5,3.4,3.4v0
		C64.1,25.6,62.6,27.1,60.7,27.1z"/>
	<path class="st0" d="M51.5,18.5H3.4C1.5,18.5,0,17,0,15.1v0c0-1.9,1.5-3.4,3.4-3.4h48.1c1.9,0,3.4,1.5,3.4,3.4v0
		C54.9,17,53.4,18.5,51.5,18.5z"/>
	<circle class="st1" cx="3.5" cy="28.7" r="1.5"/>
	<circle class="st2" cx="10.8" cy="1.8" r="1.5"/>
	<circle class="st3" cx="52.1" cy="36" r="1.5"/>
	<path class="st2" d="M12,37.1c1.4,0.1,2.4,1.2,2.5,2.5c0.1-1.4,1.2-2.4,2.5-2.5c-1.4-0.1-2.4-1.2-2.5-2.5C14.5,36,13.4,37,12,37.1z
		"/>
	<path class="st2" d="M54.4,4.4c1.4,0.1,2.4,1.2,2.5,2.5C57,5.6,58,4.5,59.4,4.4C58,4.3,57,3.3,56.9,1.9C56.8,3.3,55.7,4.3,54.4,4.4
		z"/>
	<g>
		<path class="st4" d="M33.9,1.5l13.8,6.9c1.2,0.6,1.9,1.8,1.9,3.1V28c0,1.3-0.7,2.5-1.9,3.1L33.9,38c-1,0.5-2.1,0.5-3.1,0L17,31.1
			c-1.2-0.6-1.9-1.8-1.9-3.1V11.5c0-1.3,0.7-2.5,1.9-3.1l13.8-6.9C31.8,1.1,32.9,1.1,33.9,1.5z"/>
		<polyline class="st4" points="15.7,9.7 32.4,18 49.1,9.7 		"/>
		<line class="st4" x1="32.4" y1="38.3" x2="32.4" y2="18"/>
		<line class="st4" x1="23.7" y1="5.1" x2="41" y2="13.7"/>
	</g>
</g>
</svg>
