<?xml version="1.0" encoding="utf-8"?>
<!-- Generator: Adobe Illustrator 21.0.0, SVG Export Plug-In . SVG Version: 6.00 Build 0)  -->
<svg version="1.1" id="Camada_1" xmlns="http://www.w3.org/2000/svg" xmlns:xlink="http://www.w3.org/1999/xlink" x="0px" y="0px"
	 viewBox="0 0 1135.5 208.9" style="enable-background:new 0 0 1135.5 208.9;" xml:space="preserve">
<style type="text/css">
	.st0{fill:#0084FF;}
	.st1{fill:#333C48;}
</style>
<g>
	<g>
		<path class="st0" d="M195.3,26.8C191.6,8.7,173.9-3,155.8,0.7c-18.1,3.7-29.8,21.4-26.1,39.5c0.7,3.6,2.2,6.9,3.9,9.9l-13,19.7
			c-6.4-1.6-13.2-2-20.1-0.6c-8.3,1.7-15.4,5.7-21.2,11L58.9,66.6c0.8-3.8,0.8-7.8,0-11.8c-3.3-16.1-19-26.5-35.1-23.2
			C7.7,35-2.7,50.7,0.6,66.8c3.3,16.1,19,26.5,35.1,23.2c4-0.8,7.7-2.4,10.8-4.6l20.4,13.5c-2.6,7.4-3.4,15.6-1.7,23.8
			c1.8,8.9,6.3,16.6,12.3,22.6l-8.3,12.5c-3.4-0.8-6.9-1-10.6-0.3c-14,2.9-23.1,16.6-20.3,30.7c2.9,14,16.6,23.1,30.7,20.3
			c14-2.9,23.1-16.6,20.3-30.7c-0.7-3.7-2.4-6.8-4.5-9.7l8.3-12.5c7.9,3.1,16.7,4.3,25.6,2.4c24.5-5,40.4-29,35.3-53.5
			c-1.4-6.9-4.4-13-8.5-18.3l13-19.7c3.5,0.4,7,0.4,10.6-0.3C187.3,62.6,199,44.9,195.3,26.8z M31.9,71.5C26,72.8,20.2,68.9,19,63
			c-1.2-5.9,2.6-11.7,8.5-12.9c5.9-1.2,11.7,2.6,12.9,8.5S37.8,70.3,31.9,71.5z M66,193.8c-6,1.2-11.8-2.6-13-8.6
			c-1.2-6,2.6-11.8,8.6-13c6-1.2,11.8,2.6,13,8.6C75.9,186.7,72,192.5,66,193.8z M114.2,136c-12.4,2.5-24.5-5.5-27-17.9
			c-2.5-12.4,5.5-24.5,17.9-27s24.5,5.5,27,17.9C134.6,121.4,126.6,133.5,114.2,136z M164.9,45.1c-6.4,1.3-12.7-2.8-14-9.2
			c-1.3-6.4,2.8-12.7,9.2-14c6.4-1.3,12.7,2.8,14,9.2C175.4,37.5,171.3,43.8,164.9,45.1z"/>
	</g>
	<g>
		<path class="st1" d="M205.2,113.1c0-28.5,21.6-47.8,47.1-47.8c27.4,0,39.5,17.6,42.5,30.8l-19.2,6.1c-1.4-6.3-7.2-17-23.3-17
			c-12.2,0-26,8.8-26,28c0,17.1,12.6,27.1,26.3,27.1c15.8,0,22.2-10.6,24-17.1l19.5,5.5c-3,12.6-15.1,31.9-43.4,31.9
			C226.3,160.6,205.2,141.6,205.2,113.1z"/>
		<path class="st1" d="M299.6,158.6V65.4h19.6v93.3H299.6z"/>
		<path class="st1" d="M392.1,126.5c0,19.8-14.8,34-34,34c-19.1,0-34-14.2-34-34s14.9-33.9,34-33.9
			C377.3,92.7,392.1,106.7,392.1,126.5z M372.5,126.5c0-10.8-7-15.8-14.4-15.8c-7.3,0-14.4,5-14.4,15.8c0,10.7,7.1,16,14.4,16
			C365.6,142.5,372.5,137.4,372.5,126.5z"/>
		<path class="st1" d="M437.7,152.2c-3.4,5.5-10.7,7.9-17.1,7.9c-15.6,0-24.3-11.3-24.3-25V94.6h19.6v36.3c0,6.2,3.3,11.1,10.3,11.1
			c6.6,0,10.7-4.5,10.7-11V94.6h19.6v52.6c0,5.8,0.5,10.4,0.6,11.5h-18.8C437.9,157.5,437.7,153.9,437.7,152.2z"/>
		<path class="st1" d="M528.7,147.2c0,5.8,0.4,10,0.5,11.5h-18.8c-0.1-0.8-0.5-3.6-0.5-6.2c-3,4.4-9.4,7.6-17.1,7.6
			c-18,0-31.7-13.9-31.7-33.6c0-19.1,12.9-33.4,31-33.4c11,0,15.7,4.1,17.3,6.6V65.4h19.3V147.2z M495.3,142.5
			c7.6,0,14.4-5.4,14.4-16c0-10.7-6.8-15.8-14.4-15.8c-7.6,0-14.4,5.2-14.4,15.8C480.8,137.1,487.7,142.5,495.3,142.5z"/>
		<path class="st1" d="M558.6,113.1c0-28.5,21.6-47.8,47.1-47.8c27.4,0,39.5,17.6,42.5,30.8l-19.2,6.1c-1.4-6.3-7.2-17-23.3-17
			c-12.2,0-26,8.8-26,28c0,17.1,12.6,27.1,26.3,27.1c15.8,0,22.2-10.6,24-17.1l19.4,5.5c-3,12.6-15.1,31.9-43.4,31.9
			C579.7,160.6,558.6,141.6,558.6,113.1z"/>
		<path class="st1" d="M653,158.6V65.4h19.6v93.3H653z"/>
		<path class="st1" d="M691.8,63.6c6.4,0,11.6,5.2,11.6,11.5c0,6.3-5.2,11.5-11.6,11.5c-6.2,0-11.3-5.2-11.3-11.5
			C680.4,68.7,685.6,63.6,691.8,63.6z M682.1,158.6v-64h19.6v64H682.1z"/>
		<path class="st1" d="M769.3,140.2c-3.1,11.1-13.3,20.4-29.5,20.4c-17.6,0-33.4-12.6-33.4-34.1c0-20.6,15.3-33.8,31.9-33.8
			c19.8,0,32.1,12.2,32.1,32.8c0,2.7-0.3,5.7-0.4,6h-44.6c0.4,7.2,7,12.4,14.6,12.4c7.1,0,11.1-3.4,12.9-8.4L769.3,140.2z
			 M751.5,118.9c-0.3-4.9-3.6-10.8-12.9-10.8c-8.2,0-12.4,6.1-12.8,10.8H751.5z"/>
		<path class="st1" d="M794.9,158.6h-19.6v-64h18.9v7.3c3.5-6.1,11.3-9,17.9-9c16.1,0,23.3,11.5,23.3,25.5v40.2h-19.6v-36.8
			c0-6.3-3.3-11.1-10.4-11.1c-6.4,0-10.6,4.8-10.6,11.2V158.6z"/>
		<path class="st1" d="M867.7,94.6h12.5v17.1h-12.5v24c0,5.3,2.8,6.7,7.1,6.7c2.1,0,4-0.4,5.1-0.7V158c-0.8,0.4-4,1.8-10.2,1.8
			c-13.3,0-21.4-7.9-21.4-20.6v-27.4h-11.3V94.6h3.2c6.7,0,9.9-4.5,9.9-10.4v-8.2h17.5V94.6z"/>
		<path class="st1" d="M967.8,158.6v-36.3h-36.5v36.3H911V67.3h20.4v35.8h36.5V67.3h20.5v91.3H967.8z"/>
		<path class="st1" d="M1039.8,152.2c-3.4,5.5-10.7,7.9-17.1,7.9c-15.6,0-24.4-11.3-24.4-25V94.6h19.6v36.3
			c0,6.2,3.4,11.1,10.3,11.1c6.6,0,10.7-4.5,10.7-11V94.6h19.6v52.6c0,5.8,0.5,10.4,0.6,11.5h-18.8
			C1040,157.5,1039.8,153.9,1039.8,152.2z"/>
		<path class="st1" d="M1068,158.6V65.4h19.2v35.3c2.7-4,9.8-7.6,18.6-7.6c18.5,0,29.8,14.2,29.8,33.4c0,19.6-12.6,33.6-30.5,33.6
			c-8.5,0-15.1-3.7-18-8.6v7.2H1068z M1101.5,110.7c-7.6,0-14.6,5-14.6,15.8c0,10.6,7,16,14.6,16c7.6,0,14.4-5.3,14.4-16
			C1115.9,115.7,1109.1,110.7,1101.5,110.7z"/>
	</g>
</g>
</svg>
