<?xml version="1.0" encoding="utf-8"?>
<!-- Generator: Adobe Illustrator 19.0.0, SVG Export Plug-In . SVG Version: 6.00 Build 0)  -->
<svg version="1.1" id="Layer_1" xmlns="http://www.w3.org/2000/svg" xmlns:xlink="http://www.w3.org/1999/xlink" x="0px" y="0px"
	 viewBox="0 0 126.7 56.6" style="enable-background:new 0 0 126.7 56.6;" xml:space="preserve">
<style type="text/css">
	.st0{fill:#D7E9FF;}
	.st1{fill:#F8FCFF;stroke:#0069FF;stroke-width:0.5;stroke-linecap:round;stroke-miterlimit:10;}
	.st2{fill:#4894FF;stroke:#0069FF;stroke-width:0.5;stroke-linecap:round;stroke-miterlimit:10;}
	.st3{opacity:0.5;clip-path:url(#XMLID_118_);fill:#71B5FF;}
	.st4{fill:#0069FF;}
	.st5{fill:none;stroke:#0069FF;stroke-width:0.5;stroke-linecap:round;stroke-miterlimit:10;}
	.st6{fill:#5BD698;stroke:#0069FF;stroke-width:0.5;stroke-linecap:round;stroke-miterlimit:10;}
	
		.st7{clip-path:url(#XMLID_119_);fill:#4894FF;stroke:#0069FF;stroke-width:0.5;stroke-linecap:round;stroke-linejoin:round;stroke-miterlimit:10;}
	
		.st8{clip-path:url(#XMLID_119_);fill:#F8FCFF;stroke:#0069FF;stroke-width:0.5;stroke-linecap:round;stroke-linejoin:round;stroke-miterlimit:10;}
	.st9{clip-path:url(#XMLID_119_);fill:#0069FF;stroke:#0069FF;stroke-width:0.5;stroke-linecap:round;stroke-miterlimit:10;}
	.st10{opacity:0.5;clip-path:url(#XMLID_120_);fill:#71B5FF;}
	.st11{fill:#E8CEB8;stroke:#0069FF;stroke-width:0.5;stroke-linecap:round;stroke-miterlimit:10;}
	.st12{clip-path:url(#XMLID_133_);fill:#FFFFFF;stroke:#0069FF;stroke-width:0.5;stroke-linecap:round;stroke-miterlimit:10;}
	.st13{opacity:0.5;clip-path:url(#XMLID_134_);fill:#71B5FF;}
	.st14{fill:#F8FCFF;stroke:#0069FF;stroke-width:0.5;stroke-linecap:round;stroke-linejoin:round;stroke-miterlimit:10;}
	.st15{fill:#8FBEFF;stroke:#8FBEFF;stroke-width:0.5;stroke-linejoin:round;}
	.st16{fill:#D7E9FF;stroke:#D7E9FF;stroke-width:0.5;stroke-linejoin:round;}
	.st17{fill:#0069FF;stroke:#0069FF;stroke-width:0.5;stroke-linecap:round;stroke-linejoin:round;stroke-miterlimit:10;}
	.st18{fill:#0069FF;stroke:#0069FF;stroke-width:0.5;stroke-linecap:round;stroke-miterlimit:10;}
</style>
<g id="XMLID_63_">
	<path id="XMLID_4_" class="st0" d="M14.7,30.4h108.8c1.7,0,3.2-1.4,3.2-3.2v-0.5c0-1.7-1.4-3.2-3.2-3.2H14.7
		c-1.7,0-3.2,1.4-3.2,3.2v0.5C11.5,29,12.9,30.4,14.7,30.4z"/>
	<path id="XMLID_3_" class="st0" d="M3.4,38.9H107c1.9,0,3.4-1.5,3.4-3.4v0c0-1.9-1.5-3.4-3.4-3.4H3.4C1.5,32,0,33.6,0,35.5v0
		C0,37.4,1.5,38.9,3.4,38.9z"/>
	<circle id="XMLID_132_" class="st1" cx="29.7" cy="30.3" r="19.8"/>
	<g id="XMLID_130_">
		<defs>
			<path id="XMLID_131_" d="M29.7,50.2c5.3,0,10.2-2.1,13.7-5.5c-1.6-4.1-5.5-7-10.2-7h-7.2c-4.6,0-8.6,2.9-10.2,7
				C19.5,48.1,24.4,50.2,29.7,50.2z"/>
		</defs>
		<use xlink:href="#XMLID_131_"  style="overflow:visible;fill:#FFFFFF;"/>
		<clipPath id="XMLID_78_">
			<use xlink:href="#XMLID_131_"  style="overflow:visible;"/>
		</clipPath>
		
			<use xlink:href="#XMLID_131_"  style="overflow:visible;fill:none;stroke:#0069FF;stroke-width:0.5;stroke-linecap:round;stroke-miterlimit:10;"/>
	</g>
	<path id="XMLID_129_" class="st2" d="M40.8,12.3c0-2.6-2.1-4.7-4.7-4.7L24.4,8c-2.6,0-3.5,1.2-3.5,3.8c0,0,0,0.1,0,0.1l0,0.6
		c-1.6,0-2.2,1.3-2.2,3v9.7c0,0.5,0.4,0.8,0.8,0.8H40c0.5,0,0.8-0.4,0.8-0.8C40.8,25.2,40.8,12.6,40.8,12.3z"/>
	<g id="XMLID_126_">
		<defs>
			<path id="XMLID_127_" d="M26.8,39.2v-4.5c0-1.6,1.3-2.9,2.9-2.9h0c1.6,0,2.9,1.3,2.9,2.9v4.5H26.8z"/>
		</defs>
		<use xlink:href="#XMLID_127_"  style="overflow:visible;fill:#F8FCFF;"/>
		<clipPath id="XMLID_118_">
			<use xlink:href="#XMLID_127_"  style="overflow:visible;"/>
		</clipPath>
		<path id="XMLID_128_" class="st3" d="M29.7,31.2c-1.6,0-2.9,1.3-2.9,2.9v3c0.9,0.3,1.9,0.4,2.9,0.4c1,0,2-0.2,2.9-0.4v-3
			C32.6,32.5,31.3,31.2,29.7,31.2z"/>
		
			<use xlink:href="#XMLID_127_"  style="overflow:visible;fill:none;stroke:#0069FF;stroke-width:0.5;stroke-linecap:round;stroke-miterlimit:10;"/>
	</g>
	<path id="XMLID_125_" class="st1" d="M34.8,14.4l-11.5,2.8c-0.5,0-1-0.2-1.3-0.6c-1.1,0.7-1.7,1.8-1.7,3.3v6.7
		c0,5.2,4.2,9.4,9.4,9.4c5.2,0,9.4-4.2,9.4-9.4v-8C39.1,16.3,37.2,14.4,34.8,14.4z"/>
	<path id="XMLID_124_" class="st1" d="M42.5,24.4L42.5,24.4c0-1.6-1.3-2.9-2.9-2.9h-0.5v5.8h0.5C41.2,27.3,42.5,26,42.5,24.4z"/>
	<path id="XMLID_123_" class="st1" d="M16.9,24.4L16.9,24.4c0-1.6,1.3-2.9,2.9-2.9h0.5v5.8h-0.5C18.2,27.3,16.9,26,16.9,24.4z"/>
	<circle id="XMLID_122_" class="st4" cx="25.4" cy="25" r="0.6"/>
	<circle id="XMLID_121_" class="st4" cx="34" cy="25" r="0.6"/>
	<path id="XMLID_57_" class="st5" d="M28.3,27.9c0.9,1,1.9,1.1,2.8,0"/>
	<path id="XMLID_1_" class="st5" d="M23.9,22.4c0,0,1.4-0.9,3.2,0.1"/>
	<path id="XMLID_58_" class="st5" d="M35.6,22.4c0,0-1.4-0.9-3.2,0.1"/>
	<line id="XMLID_117_" class="st6" x1="29.7" y1="50.2" x2="29.7" y2="39.4"/>
	<circle id="XMLID_116_" class="st1" cx="97.5" cy="30.3" r="19.8"/>
	<path id="XMLID_115_" class="st2" d="M100.2,8.9h-5.5c-4.4,0-8,3.6-8,8v9.6c0,1.5,1.2,2.6,2.6,2.6h16.2c1.5,0,2.6-1.2,2.6-2.6v-9.6
		C108.2,12.5,104.6,8.9,100.2,8.9z"/>
	<g id="XMLID_110_">
		<defs>
			<path id="XMLID_111_" d="M97.5,50.2c5.3,0,10.2-2.1,13.7-5.5c-1.6-4.1-5.5-7-10.2-7h-7.2c-4.6,0-8.6,2.9-10.2,7
				C87.3,48.1,92.1,50.2,97.5,50.2z"/>
		</defs>
		<use xlink:href="#XMLID_111_"  style="overflow:visible;fill:#8FBEFF;"/>
		<clipPath id="XMLID_119_">
			<use xlink:href="#XMLID_111_"  style="overflow:visible;"/>
		</clipPath>
		<polygon id="XMLID_114_" class="st7" points="99.7,50.7 104.2,42.6 103.2,41.1 104.5,39.9 101.8,37.6 93.2,37.6 90.4,39.9 
			91.7,41.1 90.7,42.6 95.1,50.3 		"/>
		<polygon id="XMLID_113_" class="st8" points="99.2,49.7 101.8,37.7 100.2,37.6 97.5,40 97.5,40.1 97.5,40.1 97.5,40.1 94.7,37.6 
			93.1,37.7 95.7,49.6 95.6,50 95.8,50 95.9,50.2 95.9,50 99,49.9 99.1,50.2 99.2,49.9 99.3,49.9 		"/>
		<polygon id="XMLID_112_" class="st9" points="97.5,55.8 99.1,50.2 98,41.1 97,41.1 95.9,50.2 		"/>
		
			<use xlink:href="#XMLID_111_"  style="overflow:visible;fill:none;stroke:#0069FF;stroke-width:0.5;stroke-linecap:round;stroke-miterlimit:10;"/>
	</g>
	<g id="XMLID_107_">
		<defs>
			<path id="XMLID_108_" d="M97.5,39.4L97.5,39.4l-2.9-0.2v-4.5c0-1.6,1.3-2.9,2.9-2.9h0c1.6,0,2.9,1.3,2.9,2.9v4.5L97.5,39.4z"/>
		</defs>
		<use xlink:href="#XMLID_108_"  style="overflow:visible;fill:#F8FCFF;"/>
		<clipPath id="XMLID_120_">
			<use xlink:href="#XMLID_108_"  style="overflow:visible;"/>
		</clipPath>
		<path id="XMLID_109_" class="st10" d="M97.5,31.2c-1.6,0-2.9,1.3-2.9,2.9v3c0.9,0.3,1.9,0.4,2.9,0.4c1,0,2-0.2,2.9-0.4v-3
			C100.3,32.5,99.1,31.2,97.5,31.2z"/>
		
			<use xlink:href="#XMLID_108_"  style="overflow:visible;fill:none;stroke:#0069FF;stroke-width:0.5;stroke-linecap:round;stroke-miterlimit:10;"/>
	</g>
	<path id="XMLID_106_" class="st1" d="M102.6,15.6C102.6,15.6,102.6,15.6,102.6,15.6c-1.3,0.9-3.1,1.5-5.2,1.5
		c-1.3,0-2.5-0.2-3.6-0.7c-1.3-0.5-3.1-0.3-4.1,0.7c-1.1,1.1-1.7,2.5-1.7,4.1v6.1c0,4.8,4.2,8.8,9.4,8.8h0c5.2,0,9.4-3.9,9.4-8.8
		v-6.1C106.9,18.6,105.1,16.4,102.6,15.6z"/>
	<path id="XMLID_105_" class="st1" d="M110.2,26L110.2,26c0-1.6-1.3-2.9-2.9-2.9h-0.5v5.8h0.5C109,28.9,110.2,27.6,110.2,26z"/>
	<path id="XMLID_104_" class="st1" d="M84.7,26L84.7,26c0-1.6,1.3-2.9,2.9-2.9h0.5v5.8h-0.5C86,28.9,84.7,27.6,84.7,26z"/>
	<circle id="XMLID_103_" class="st4" cx="93.2" cy="24.8" r="0.6"/>
	<circle id="XMLID_102_" class="st4" cx="101.8" cy="24.8" r="0.6"/>
	<path id="XMLID_101_" class="st5" d="M96.6,27.2c0.5,0.5,1.1,0.5,1.7,0"/>
	<path id="XMLID_100_" class="st11" d="M91.1,22.8c0,0,0.9-1.1,2.4-1.1"/>
	<path id="XMLID_99_" class="st11" d="M103.9,22.8c0,0-0.9-1.1-2.4-1.1"/>
	<circle id="XMLID_98_" class="st1" cx="63.6" cy="32.7" r="23.6"/>
	<circle id="XMLID_97_" class="st2" cx="72.6" cy="7.2" r="6.9"/>
	<path id="XMLID_96_" class="st2" d="M75.2,28.7H51.9c-1.2,0-2.2-1-2.2-2.2v-6.5c0-7.6,6.2-13.9,13.9-13.9h0
		c7.6,0,13.9,6.2,13.9,13.9v6.5C77.4,27.8,76.4,28.7,75.2,28.7z"/>
	<g id="XMLID_92_">
		<defs>
			<path id="XMLID_95_" d="M63.6,56.4c6.3,0,12.1-2.5,16.3-6.6c-1.9-4.9-6.6-8.3-12.1-8.3h-8.5c-5.5,0-10.2,3.5-12.1,8.3
				C51.5,53.9,57.2,56.4,63.6,56.4z"/>
		</defs>
		<use xlink:href="#XMLID_95_"  style="overflow:visible;fill:#8FBEFF;"/>
		<clipPath id="XMLID_133_">
			<use xlink:href="#XMLID_95_"  style="overflow:visible;"/>
		</clipPath>
		<rect id="XMLID_94_" x="60.2" y="42.4" class="st12" width="6.8" height="14.9"/>
		<path id="XMLID_93_" class="st12" d="M60.2,47c0.9,0.9,2.1,1.4,3.4,1.4c1.3,0,2.5-0.5,3.4-1.4v-4.7h-6.8V47z"/>
		
			<use xlink:href="#XMLID_95_"  style="overflow:visible;fill:none;stroke:#0069FF;stroke-width:0.5;stroke-linecap:round;stroke-miterlimit:10;"/>
	</g>
	<g id="XMLID_89_">
		<defs>
			<path id="XMLID_90_" d="M63.6,46.7L63.6,46.7c-1.9,0-3.4-1.5-3.4-3.4V38c0-1.9,1.5-3.4,3.4-3.4h0c1.9,0,3.4,1.5,3.4,3.4v5.3
				C67,45.1,65.5,46.7,63.6,46.7z"/>
		</defs>
		<use xlink:href="#XMLID_90_"  style="overflow:visible;fill:#F8FCFF;"/>
		<clipPath id="XMLID_134_">
			<use xlink:href="#XMLID_90_"  style="overflow:visible;"/>
		</clipPath>
		<path id="XMLID_91_" class="st13" d="M63.6,34.2c-1.9,0-3.4,1.5-3.4,3.4v3.6c1.1,0.3,2.2,0.5,3.4,0.5s2.3-0.2,3.4-0.5v-3.6
			C67,35.7,65.5,34.2,63.6,34.2z"/>
		
			<use xlink:href="#XMLID_90_"  style="overflow:visible;fill:none;stroke:#0069FF;stroke-width:0.5;stroke-linecap:round;stroke-miterlimit:10;"/>
	</g>
	<path id="XMLID_88_" class="st14" d="M74.7,21.5c-7,0-11.6-1.3-15.3-4.7c-0.7,2.1-4.7,6-7,6v4.9c0,6.6,5,11.9,11.2,11.9
		s11.2-5.3,11.2-11.9L74.7,21.5C74.8,21.6,74.8,21.5,74.7,21.5z"/>
	<path id="XMLID_87_" class="st5" d="M56.7,24.7c0,0,1.5-0.8,3.2-0.2"/>
	<path id="XMLID_86_" class="st5" d="M70.5,24.7c0,0-1.5-0.8-3.2-0.2"/>
	<path id="XMLID_85_" class="st1" d="M78.8,26.9L78.8,26.9c0-1.9-1.5-3.4-3.4-3.4h-0.6v6.9h0.6C77.3,30.4,78.8,28.8,78.8,26.9z"/>
	<path id="XMLID_84_" class="st1" d="M48.4,26.9L48.4,26.9c0-1.9,1.5-3.4,3.4-3.4h0.6v6.9h-0.6C49.9,30.4,48.4,28.8,48.4,26.9z"/>
	<circle id="XMLID_83_" class="st4" cx="58.2" cy="27" r="0.8"/>
	<circle id="XMLID_82_" class="st4" cx="68.9" cy="27" r="0.8"/>
	<path id="XMLID_81_" class="st5" d="M62.6,30.6c0.6,0.6,1.4,0.7,2,0"/>
	<path id="XMLID_80_" class="st5" d="M73.6,13.6c0.8,1.5,1.2,3.3,1.2,5.1v4.5"/>
	<path id="XMLID_79_" class="st5" d="M96.1,31.5c0,0,1.6,0.7,2.8,0"/>
	<path id="XMLID_60_" class="st5" d="M28.1,31.5c0,0,1.6,0.7,2.8,0"/>
	<circle id="XMLID_77_" class="st15" cx="114.3" cy="47.8" r="1.5"/>
	<circle id="XMLID_76_" class="st16" cx="11.6" cy="12.1" r="1.5"/>
	<path id="XMLID_75_" class="st16" d="M119.3,13.6c-1.4,0.1-2.4,1.2-2.5,2.5c-0.1-1.4-1.2-2.4-2.5-2.5c1.4-0.1,2.4-1.2,2.5-2.5
		C116.9,12.5,118,13.6,119.3,13.6z"/>
	<path id="XMLID_74_" class="st16" d="M13.1,46.7c-1.4,0.1-2.4,1.2-2.5,2.5c-0.1-1.4-1.2-2.4-2.5-2.5c1.4-0.1,2.4-1.2,2.5-2.5
		C10.6,45.5,11.7,46.6,13.1,46.7z"/>
	<polygon id="XMLID_73_" class="st17" points="97.5,42.4 99.1,39.4 98.5,39.3 96.5,39.3 95.9,39.4 	"/>
	<polygon id="XMLID_72_" class="st14" points="97.5,39.4 100.3,37.1 101.8,37.7 101.7,40.9 	"/>
	<polygon id="XMLID_71_" class="st14" points="97.5,39.4 94.6,37.1 93.1,37.7 93.2,40.9 	"/>
	<polygon id="XMLID_70_" class="st14" points="29.7,39.4 32.6,37.1 34.1,37.7 34,40.9 	"/>
	<polygon id="XMLID_69_" class="st14" points="29.7,39.4 26.8,37.1 25.4,37.7 25.5,40.9 	"/>
	<circle id="XMLID_68_" class="st18" cx="30.8" cy="41.3" r="0.2"/>
	<circle id="XMLID_67_" class="st18" cx="30.8" cy="43.8" r="0.2"/>
	<circle id="XMLID_66_" class="st18" cx="30.8" cy="46.4" r="0.2"/>
	<circle id="XMLID_65_" class="st18" cx="30.8" cy="49" r="0.2"/>
	<path id="XMLID_64_" class="st5" d="M77.4,7.2c0,2-1.2,3.7-2.9,4.4"/>
	<path id="XMLID_2_" class="st4" d="M63.7,36.7h-0.3c-1.4,0-2.5-1.1-2.5-2.5v0c0-0.4,0.3-0.7,0.7-0.7h4c0.4,0,0.7,0.3,0.7,0.7v0
		C66.2,35.5,65.1,36.7,63.7,36.7z"/>
	<polyline id="XMLID_62_" class="st5" points="60.2,41.5 55.2,48 57.7,50.2 55.2,52 56.9,55.4 	"/>
	<polyline id="XMLID_61_" class="st5" points="67,41.5 72,48 69.5,50.2 72,52 70.3,55.4 	"/>
</g>
</svg>
