<?xml version="1.0" encoding="utf-8"?>
<!-- Generator: Adobe Illustrator 19.0.0, SVG Export Plug-In . SVG Version: 6.00 Build 0)  -->
<svg version="1.1" id="Layer_1" xmlns="http://www.w3.org/2000/svg" xmlns:xlink="http://www.w3.org/1999/xlink" x="0px" y="0px"
	 viewBox="0 0 64.1 40.3" style="enable-background:new 0 0 64.1 40.3;" xml:space="preserve">
<style type="text/css">
	.st0{fill:#D7E9FF;}
	.st1{fill:#8FBEFF;stroke:#8FBEFF;stroke-width:0.5;stroke-linejoin:round;}
	.st2{fill:#D7E9FF;stroke:#D7E9FF;stroke-width:0.5;stroke-linejoin:round;}
	.st3{fill:#4894FF;stroke:#4894FF;stroke-width:0.5;stroke-linejoin:round;}
	.st4{fill:#F8FCFF;stroke:#0069FF;stroke-width:0.5;stroke-linecap:round;stroke-miterlimit:10;}
</style>
<g id="XMLID_1_">
	<path class="st0" d="M60.7,27.1H12.6c-1.9,0-3.4-1.5-3.4-3.4v0c0-1.9,1.5-3.4,3.4-3.4h48.1c1.9,0,3.4,1.5,3.4,3.4v0
		C64.1,25.6,62.6,27.1,60.7,27.1z"/>
	<path class="st0" d="M51.5,18.5H3.4C1.5,18.5,0,17,0,15.1v0c0-1.9,1.5-3.4,3.4-3.4h48.1c1.9,0,3.4,1.5,3.4,3.4v0
		C54.9,17,53.4,18.5,51.5,18.5z"/>
	<circle class="st1" cx="3.5" cy="28.7" r="1.5"/>
	<circle class="st2" cx="10.8" cy="1.8" r="1.5"/>
	<circle class="st3" cx="52.1" cy="36" r="1.5"/>
	<path class="st2" d="M10.8,37.5c1.4,0.1,2.4,1.2,2.5,2.5c0.1-1.4,1.2-2.4,2.5-2.5c-1.4-0.1-2.4-1.2-2.5-2.5
		C13.2,36.4,12.2,37.5,10.8,37.5z"/>
	<path class="st2" d="M50.6,4.6c1.4,0.1,2.4,1.2,2.5,2.5c0.1-1.4,1.2-2.4,2.5-2.5c-1.4-0.1-2.4-1.2-2.5-2.5
		C53.1,3.4,52,4.5,50.6,4.6z"/>
	<path class="st4" d="M49.7,32c0,1.9-1.6,3.5-3.5,3.5H18.4c-1.9,0-3.5-1.6-3.5-3.5V7.6c0-1.9,1.6-3.5,3.5-3.5h8.7l3.5,5.2h15.6
		c1.9,0,3.5,1.6,3.5,3.5V32z"/>
</g>
</svg>
