<?xml version="1.0" encoding="utf-8"?>
<!-- Generator: Adobe Illustrator 21.0.0, SVG Export Plug-In . SVG Version: 6.00 Build 0)  -->
<svg version="1.1" id="Camada_1" xmlns="http://www.w3.org/2000/svg" xmlns:xlink="http://www.w3.org/1999/xlink" x="0px" y="0px"
	 viewBox="0 0 126.7 52.8" style="enable-background:new 0 0 126.7 52.8;" xml:space="preserve">
<style type="text/css">
	.st0{fill:#D7E9FF;}
	.st1{fill:#F8FCFF;stroke:#0069FF;stroke-width:0.5;stroke-linecap:round;stroke-miterlimit:10;}
	.st2{fill:#4894FF;stroke:#0069FF;stroke-width:0.5;stroke-linecap:round;stroke-miterlimit:10;}
	.st3{opacity:0.5;clip-path:url(#SVGID_4_);fill:#71B5FF;}
	.st4{fill:#0069FF;}
	.st5{fill:none;stroke:#0069FF;stroke-width:0.5;stroke-linecap:round;stroke-miterlimit:10;}
	.st6{fill:#5BD698;stroke:#0069FF;stroke-width:0.5;stroke-linecap:round;stroke-miterlimit:10;}
	.st7{clip-path:url(#SVGID_6_);fill:#8FBEFF;stroke:#0069FF;stroke-width:0.5;stroke-linecap:round;stroke-miterlimit:10;}
	.st8{opacity:0.5;clip-path:url(#SVGID_8_);fill:#71B5FF;}
	.st9{fill:#E8CEB8;stroke:#0069FF;stroke-width:0.5;stroke-linecap:round;stroke-miterlimit:10;}
	.st10{clip-path:url(#SVGID_10_);fill:#F8FCFF;stroke:#0069FF;stroke-width:0.5;stroke-linecap:round;stroke-miterlimit:10;}
	.st11{opacity:0.5;clip-path:url(#SVGID_12_);fill:#71B5FF;}
	.st12{fill:#FFFFFF;stroke:#0069FF;stroke-width:0.5;stroke-linecap:round;stroke-miterlimit:10;}
	.st13{fill:#8FBEFF;stroke:#8FBEFF;stroke-width:0.5;stroke-linejoin:round;}
	.st14{fill:#D7E9FF;stroke:#D7E9FF;stroke-width:0.5;stroke-linejoin:round;}
	.st15{fill:#4894FF;stroke:#4894FF;stroke-width:0.5;stroke-linejoin:round;}
</style>
<path class="st0" d="M112,26.6H3.2c-1.7,0-3.2-1.4-3.2-3.2l0-0.5c0-1.7,1.4-3.2,3.2-3.2H112c1.7,0,3.2,1.4,3.2,3.2v0.5
	C115.2,25.2,113.8,26.6,112,26.6z"/>
<path class="st0" d="M123.2,35.1H19.7c-1.9,0-3.4-1.5-3.4-3.4v0c0-1.9,1.5-3.4,3.4-3.4h103.6c1.9,0,3.4,1.5,3.4,3.4v0
	C126.7,33.6,125.1,35.1,123.2,35.1z"/>
<circle class="st1" cx="29.7" cy="26.5" r="19.8"/>
<g>
	<defs>
		<path id="SVGID_1_" d="M29.7,46.4c5.3,0,10.2-2.1,13.7-5.5c-1.6-4.1-5.5-7-10.2-7h-7.2c-4.6,0-8.6,2.9-10.2,7
			C19.5,44.3,24.4,46.4,29.7,46.4z"/>
	</defs>
	<use xlink:href="#SVGID_1_"  style="overflow:visible;fill:#8FBEFF;"/>
	<clipPath id="SVGID_2_">
		<use xlink:href="#SVGID_1_"  style="overflow:visible;"/>
	</clipPath>
	
		<use xlink:href="#SVGID_1_"  style="overflow:visible;fill:none;stroke:#0069FF;stroke-width:0.5;stroke-linecap:round;stroke-miterlimit:10;"/>
</g>
<path class="st2" d="M40,22.2H19.4c-0.5,0-0.8-0.4-0.8-0.8V9.5c0-0.5,0.4-0.8,0.8-0.8H40c0.5,0,0.8,0.4,0.8,0.8v11.9
	C40.8,21.8,40.4,22.2,40,22.2z"/>
<g>
	<defs>
		<path id="SVGID_3_" d="M29.7,38.2L29.7,38.2c-1.6,0-2.9-1.3-2.9-2.9v-4.5c0-1.6,1.3-2.9,2.9-2.9h0c1.6,0,2.9,1.3,2.9,2.9v4.5
			C32.6,36.9,31.3,38.2,29.7,38.2z"/>
	</defs>
	<use xlink:href="#SVGID_3_"  style="overflow:visible;fill:#F8FCFF;"/>
	<clipPath id="SVGID_4_">
		<use xlink:href="#SVGID_3_"  style="overflow:visible;"/>
	</clipPath>
	<path class="st3" d="M29.7,27.4c-1.6,0-2.9,1.3-2.9,2.9v3c0.9,0.3,1.9,0.4,2.9,0.4c1,0,2-0.2,2.9-0.4v-3
		C32.6,28.7,31.3,27.4,29.7,27.4z"/>
	
		<use xlink:href="#SVGID_3_"  style="overflow:visible;fill:none;stroke:#0069FF;stroke-width:0.5;stroke-linecap:round;stroke-miterlimit:10;"/>
</g>
<path class="st1" d="M42.5,20.6L42.5,20.6c0-1.6-1.3-2.9-2.9-2.9h-0.5v5.8h0.5C41.2,23.5,42.5,22.2,42.5,20.6z"/>
<path class="st1" d="M29.7,32.3L29.7,32.3c-5.2,0-9.4-4.2-9.4-9.4V12.1c0-0.8,0.7-1.5,1.5-1.5h15.9c0.8,0,1.5,0.7,1.5,1.5v10.8
	C39.1,28.1,34.9,32.3,29.7,32.3z"/>
<path class="st1" d="M16.9,20.6L16.9,20.6c0-1.6,1.3-2.9,2.9-2.9h0.5v5.8h-0.5C18.2,23.5,16.9,22.2,16.9,20.6z"/>
<circle class="st4" cx="25.4" cy="21.2" r="0.6"/>
<circle class="st4" cx="34" cy="21.2" r="0.6"/>
<path class="st5" d="M28.5,23.8c0.7,0.7,1.6,0.7,2.3,0"/>
<path class="st4" d="M30,29.8h-0.5c-1.1,0-2-0.9-2-2v0c0-0.4,0.3-0.7,0.7-0.7h3.1c0.4,0,0.7,0.3,0.7,0.7v0C31.9,29,31,29.8,30,29.8z
	"/>
<path class="st5" d="M23.3,19.3c0,0,0.5-1.2,2-1.2"/>
<path class="st5" d="M36.1,19.3c0,0-0.5-1.2-2-1.2"/>
<line class="st6" x1="29.7" y1="46.4" x2="29.7" y2="38.2"/>
<path class="st2" d="M38.6,5.7l-0.1,0c-1.2,0-2.1,1-2.1,2.2l0-1.6c0-1.2-1-2.1-2.2-2.1l-0.1,0c-1.2,0-2.1,1-2.1,2.2l0-1.6
	c0-1.2-1-2.1-2.2-2.1l-0.1,0c-1.2,0-2.1,1-2.1,2.2l0,1.6c0-1.2-1-2.1-2.2-2.1l-0.1,0c-1.2,0-2.1,1-2.1,2.2l0,1.6
	c0-1.2-1-2.1-2.2-2.1l-0.1,0c-1.2,0-2.1,1-2.1,2.2l0,5.4c0,1.2,1,2.1,2.2,2.1l0.1,0c1.2,0,2.1-1,2.1-2.2l0-1.6c0,1.2,1,2.1,2.2,2.1
	l0.1,0c1.2,0,2.1-1,2.1-2.2l0-1.6c0,1.2,1,2.1,2.2,2.1l0.1,0c1.2,0,2.1-1,2.1-2.2l0,1.6c0,1.2,1,2.1,2.2,2.1l0.1,0
	c1.2,0,2.1-1,2.1-2.2l0,1.6c0,1.2,1,2.1,2.2,2.1l0.1,0c1.2,0,2.1-1,2.1-2.2l0-5.4C40.8,6.7,39.8,5.7,38.6,5.7z"/>
<circle class="st1" cx="97.5" cy="26.5" r="19.8"/>
<path class="st2" d="M108.2,7.5H93.5C93.3,7.5,93,7.7,93,8V19c0,0.2,0.2,0.4,0.4,0.4h15c0.2,0,0.4-0.2,0.4-0.4V8
	C108.7,7.8,108.5,7.5,108.2,7.5z"/>
<g>
	<defs>
		<path id="SVGID_5_" d="M97.5,46.4c5.3,0,10.2-2.1,13.7-5.5c-1.6-4.1-5.5-7-10.2-7h-7.2c-4.6,0-8.6,2.9-10.2,7
			C87.3,44.3,92.1,46.4,97.5,46.4z"/>
	</defs>
	<use xlink:href="#SVGID_5_"  style="overflow:visible;fill:#8FBEFF;"/>
	<clipPath id="SVGID_6_">
		<use xlink:href="#SVGID_5_"  style="overflow:visible;"/>
	</clipPath>
	<path class="st7" d="M97.7,39.9h-0.5c-2.3,0-4.2-1.9-4.2-4.2v-5.6c0-2.3,1.9-4.2,4.2-4.2h0.5c2.3,0,4.2,1.9,4.2,4.2v5.6
		C101.9,38,100,39.9,97.7,39.9z"/>
	
		<use xlink:href="#SVGID_5_"  style="overflow:visible;fill:none;stroke:#0069FF;stroke-width:0.5;stroke-linecap:round;stroke-miterlimit:10;"/>
</g>
<g>
	<defs>
		<path id="SVGID_7_" d="M97.5,38.2L97.5,38.2c-1.6,0-2.9-1.3-2.9-2.9v-4.5c0-1.6,1.3-2.9,2.9-2.9h0c1.6,0,2.9,1.3,2.9,2.9v4.5
			C100.3,36.9,99.1,38.2,97.5,38.2z"/>
	</defs>
	<use xlink:href="#SVGID_7_"  style="overflow:visible;fill:#F8FCFF;"/>
	<clipPath id="SVGID_8_">
		<use xlink:href="#SVGID_7_"  style="overflow:visible;"/>
	</clipPath>
	<path class="st8" d="M97.5,27.4c-1.6,0-2.9,1.3-2.9,2.9v3c0.9,0.3,1.9,0.4,2.9,0.4c1,0,2-0.2,2.9-0.4v-3
		C100.3,28.7,99.1,27.4,97.5,27.4z"/>
	
		<use xlink:href="#SVGID_7_"  style="overflow:visible;fill:none;stroke:#0069FF;stroke-width:0.5;stroke-linecap:round;stroke-miterlimit:10;"/>
</g>
<path class="st1" d="M110.2,19.3L110.2,19.3c0-1.6-1.3-2.9-2.9-2.9h-0.5v5.8h0.5C109,22.2,110.2,20.9,110.2,19.3z"/>
<path class="st1" d="M99.1,32.3h-3.2c-4.3,0-7.8-3.5-7.8-7.8V12.1h18.8v12.5C106.9,28.8,103.4,32.3,99.1,32.3z"/>
<path class="st2" d="M92.1,3.2c-1.2,0-2.2,1-2.2,2.2v0.9h-0.7c-1.6,0-3,1.3-3,3v7.9c0,1.1,0.8,1.9,1.8,2.1v-5.6
	c0-0.9,0.7-1.6,1.6-1.6l0.3,0v0.2c0,1.2,1,2.2,2.2,2.2h7.8c6.2,0,11.3-5.1,11.3-11.3H92.1z"/>
<path class="st1" d="M84.7,19.3L84.7,19.3c0-1.6,1.3-2.9,2.9-2.9h0.5v5.8h-0.5C86,22.2,84.7,20.9,84.7,19.3z"/>
<circle class="st4" cx="93.2" cy="21" r="0.6"/>
<circle class="st4" cx="101.8" cy="21" r="0.6"/>
<path class="st5" d="M96.6,22.8c0.5,0.5,1.1,0.5,1.7,0"/>
<line class="st6" x1="89.9" y1="43.1" x2="92.9" y2="43.1"/>
<path class="st2" d="M100.3,27.6l-2.6-1.1c-0.3-0.1-0.5-0.1-0.8,0l-2.6,1.1v-0.8c0-0.7,0.6-1.4,1.4-1.4H99c0.7,0,1.4,0.6,1.4,1.4
	V27.6z"/>
<path class="st9" d="M91.1,19c0,0,0.9-1.1,2.4-1.1"/>
<path class="st9" d="M103.9,19c0,0-0.9-1.1-2.4-1.1"/>
<circle class="st1" cx="63.6" cy="28.9" r="23.6"/>
<path class="st2" d="M73.9,47.2H53.2c-1.9,0-3.5-1.6-3.5-3.5V14.1c0-7.6,6.2-13.9,13.9-13.9h0c7.6,0,13.9,6.2,13.9,13.9v29.7
	C77.4,45.7,75.8,47.2,73.9,47.2z"/>
<g>
	<defs>
		<path id="SVGID_9_" d="M63.6,52.6c6.3,0,12.1-2.5,16.3-6.6c-1.9-4.9-6.6-8.3-12.1-8.3h-8.5c-5.5,0-10.2,3.5-12.1,8.3
			C51.5,50.1,57.2,52.6,63.6,52.6z"/>
	</defs>
	<use xlink:href="#SVGID_9_"  style="overflow:visible;fill:#8FBEFF;"/>
	<clipPath id="SVGID_10_">
		<use xlink:href="#SVGID_9_"  style="overflow:visible;"/>
	</clipPath>
	<path class="st10" d="M63.6,43l-3.4,4.2c-0.3,0.3-0.7,0.3-0.9-0.1l-5-9.5l5.3-0.6L63.6,43z"/>
	<path class="st10" d="M63.5,43l3.4,4.2c0.2,0.3,0.7,0.3,0.9-0.1l5-9.5L67.5,37L63.5,43z"/>
	
		<use xlink:href="#SVGID_9_"  style="overflow:visible;fill:none;stroke:#0069FF;stroke-width:0.5;stroke-linecap:round;stroke-miterlimit:10;"/>
</g>
<g>
	<defs>
		<path id="SVGID_11_" d="M63.6,42.9L63.6,42.9c-1.9,0-3.4-1.5-3.4-3.4v-5.3c0-1.9,1.5-3.4,3.4-3.4h0c1.9,0,3.4,1.5,3.4,3.4v5.3
			C67,41.3,65.5,42.9,63.6,42.9z"/>
	</defs>
	<use xlink:href="#SVGID_11_"  style="overflow:visible;fill:#F8FCFF;"/>
	<clipPath id="SVGID_12_">
		<use xlink:href="#SVGID_11_"  style="overflow:visible;"/>
	</clipPath>
	<path class="st11" d="M63.6,30.4c-1.9,0-3.4,1.5-3.4,3.4v3.6c1.1,0.3,2.2,0.5,3.4,0.5s2.3-0.2,3.4-0.5v-3.6
		C67,31.9,65.5,30.4,63.6,30.4z"/>
	
		<use xlink:href="#SVGID_11_"  style="overflow:visible;fill:none;stroke:#0069FF;stroke-width:0.5;stroke-linecap:round;stroke-miterlimit:10;"/>
</g>
<path class="st1" d="M78.8,23.1L78.8,23.1c0-1.9-1.5-3.4-3.4-3.4h-0.6v6.9h0.6C77.3,26.6,78.8,25,78.8,23.1z"/>
<path class="st1" d="M63.6,35.8L63.6,35.8c6.2,0,11.2-5.3,11.2-11.9v-6.1c0,0,0-0.1-0.1-0.1c-9.2,0-16.8-1.8-21.5-3.6
	c-0.4-0.2-0.8,0.2-0.8,0.6l0,9.2C52.4,30.5,57.4,35.8,63.6,35.8z"/>
<path class="st12" d="M60.4,23.8h-4.9c-0.6,0-1.2-0.5-1.2-1.2v-2.1c0-0.6,0.5-1.2,1.2-1.2h4.9c0.6,0,1.2,0.5,1.2,1.2v2.1
	C61.5,23.3,61,23.8,60.4,23.8z"/>
<path class="st12" d="M71.7,23.8h-4.9c-0.6,0-1.2-0.5-1.2-1.2v-2.1c0-0.6,0.5-1.2,1.2-1.2h4.9c0.6,0,1.2,0.5,1.2,1.2v2.1
	C72.9,23.3,72.4,23.8,71.7,23.8z"/>
<path class="st1" d="M48.4,23.1L48.4,23.1c0-1.9,1.5-3.4,3.4-3.4h0.6v6.9h-0.6C49.9,26.6,48.4,25,48.4,23.1z"/>
<circle class="st4" cx="57.6" cy="20.7" r="0.8"/>
<circle class="st4" cx="68.3" cy="20.7" r="0.8"/>
<path class="st5" d="M62.6,26.8c0.6,0.6,1.4,0.7,2,0"/>
<path class="st5" d="M65.1,31.7c1.2-0.1,2.7-0.6,3.8-1.7"/>
<line class="st5" x1="52.4" y1="20.7" x2="54.3" y2="20.7"/>
<line class="st5" x1="72.9" y1="20.7" x2="74.9" y2="20.7"/>
<path class="st5" d="M61.7,21.8c0-0.5,3.8-0.5,3.8,0.1"/>
<path class="st5" d="M73.6,9.8c0.8,1.5,1.2,3.3,1.2,5.1v4.5"/>
<path class="st5" d="M96.1,28.3c0,0,1.6,0.7,2.8,0"/>
<circle class="st13" cx="12.4" cy="44" r="1.5"/>
<circle class="st14" cx="115.1" cy="8.3" r="1.5"/>
<circle class="st15" cx="80" cy="3.8" r="1.5"/>
<path class="st14" d="M7.4,9.8c1.4,0.1,2.4,1.2,2.5,2.5C9.9,11,11,9.9,12.4,9.8C11,9.8,9.9,8.7,9.9,7.3C9.8,8.7,8.7,9.8,7.4,9.8z"/>
<path class="st14" d="M113.6,42.9c1.4,0.1,2.4,1.2,2.5,2.5c0.1-1.4,1.2-2.4,2.5-2.5c-1.4-0.1-2.4-1.2-2.5-2.5
	C116,41.7,115,42.8,113.6,42.9z"/>
</svg>
